<svg width="1280" height="2264" viewBox="0 0 1280 2264" fill="none" xmlns="http://www.w3.org/2000/svg">
<g clip-path="url(#clip0_142_6895)">
<path d="M0 24C0 10.7451 10.7452 0 24 0H1256C1269.25 0 1280 10.7452 1280 24V2240C1280 2253.25 1269.25 2264 1256 2264H24C10.7452 2264 0 2253.25 0 2240V24Z" fill="url(#paint0_linear_142_6895)"/>
<path d="M0 24C0 10.7451 10.7452 0 24 0H1256C1269.25 0 1280 10.7452 1280 24V2240C1280 2253.25 1269.25 2264 1256 2264H24C10.7452 2264 0 2253.25 0 2240V24Z" fill="url(#paint1_radial_142_6895)"/>
<g filter="url(#filter0_i_142_6895)">
<path d="M1010 700C1012.6 700 1072.33 700 1111.48 700C1119.95 700 1128.06 703.36 1134.06 709.344L1142.6 717.862C1148.62 723.865 1152 732.017 1152 740.518V996" stroke="white"/>
</g>
<g filter="url(#filter1_i_142_6895)">
<path d="M1010 686C1012.71 686 1075.52 686 1115.91 686C1123.95 686 1131.69 689.03 1137.6 694.487L1155.71 711.198C1162.27 717.255 1166 725.78 1166 734.711V991" stroke="white"/>
</g>
<g filter="url(#filter2_di_142_6895)">
<path d="M1166 991V734.711C1166 725.78 1162.27 717.255 1155.71 711.198L1138.16 695" stroke="#F8F8F8" stroke-linecap="round"/>
<path d="M1166 991V734.711C1166 725.78 1162.27 717.255 1155.71 711.198L1138.16 695" stroke="url(#paint2_linear_142_6895)" stroke-linecap="round"/>
</g>
<g filter="url(#filter3_f_142_6895)">
<path d="M1166 991V734.711C1166 725.78 1162.27 717.255 1155.71 711.198L1138.16 695" stroke="#F8F8F8" stroke-linecap="round"/>
<path d="M1166 991V734.711C1166 725.78 1162.27 717.255 1155.71 711.198L1138.16 695" stroke="url(#paint3_linear_142_6895)" stroke-opacity="0.6" stroke-linecap="round"/>
</g>
<g filter="url(#filter4_i_142_6895)">
<path d="M1010 1292C1012.6 1292 1072.33 1292 1111.48 1292C1119.95 1292 1128.06 1288.64 1134.06 1282.66L1142.6 1274.14C1148.62 1268.13 1152 1259.98 1152 1251.48V996" stroke="white"/>
</g>
<g filter="url(#filter5_i_142_6895)">
<path d="M1010 1306C1012.71 1306 1075.52 1306 1115.91 1306C1123.95 1306 1131.69 1302.97 1137.6 1297.51L1155.71 1280.8C1162.27 1274.74 1166 1266.22 1166 1257.29V1001" stroke="white"/>
</g>
<g filter="url(#filter6_di_142_6895)">
<path d="M1166 1001V1257.29C1166 1266.22 1162.27 1274.74 1155.71 1280.8L1138.16 1297" stroke="#F8F8F8" stroke-linecap="round"/>
<path d="M1166 1001V1257.29C1166 1266.22 1162.27 1274.74 1155.71 1280.8L1138.16 1297" stroke="url(#paint4_linear_142_6895)" stroke-linecap="round"/>
</g>
<g filter="url(#filter7_f_142_6895)">
<path d="M1166 1001V1257.29C1166 1266.22 1162.27 1274.74 1155.71 1280.8L1138.16 1297" stroke="#F8F8F8" stroke-linecap="round"/>
<path d="M1166 1001V1257.29C1166 1266.22 1162.27 1274.74 1155.71 1280.8L1138.16 1297" stroke="url(#paint5_linear_142_6895)" stroke-opacity="0.6" stroke-linecap="round"/>
</g>
<g filter="url(#filter8_i_142_6895)">
<path d="M452 459L367.213 359.273C361.133 352.121 352.22 348 342.834 348H321.361C312.119 348 303.328 351.996 297.251 358.96L290.972 366.155C284.895 373.119 276.104 377.115 266.861 377.115H-82" stroke="white"/>
</g>
<g filter="url(#filter9_i_142_6895)">
<path d="M446 469.824L361.273 370.261C355.193 363.117 346.284 359 336.903 359H326.326C317.089 359 308.302 362.992 302.225 369.948L295.961 377.12C289.884 384.077 281.098 388.069 271.86 388.069H186C168.327 388.069 154 402.396 154 420.069V597" stroke="white"/>
</g>
<g filter="url(#filter10_di_142_6895)">
<path d="M154 493V420C154 402.327 168.327 388 186 388H187H220" stroke="#F8F8F8" stroke-linecap="round"/>
<path d="M154 493V420C154 402.327 168.327 388 186 388H187H220" stroke="url(#paint6_linear_142_6895)" stroke-opacity="0.6" stroke-linecap="round"/>
</g>
<g filter="url(#filter11_f_142_6895)">
<path d="M154 493V420C154 402.327 168.327 388 186 388H187H220" stroke="#F8F8F8" stroke-linecap="round"/>
<path d="M154 493V420C154 402.327 168.327 388 186 388H187H220" stroke="url(#paint7_linear_142_6895)" stroke-opacity="0.6" stroke-linecap="round"/>
</g>
<g filter="url(#filter12_i_142_6895)">
<path d="M502.5 1467.5L367.231 1632.3C361.153 1639.71 352.076 1644 342.496 1644H321.361C312.119 1644 303.328 1640 297.251 1633.04L290.972 1625.85C284.895 1618.88 276.104 1614.89 266.861 1614.89H-82" stroke="white"/>
</g>
<g filter="url(#filter13_i_142_6895)">
<path d="M486.5 1466L361.296 1621.1C355.221 1628.63 346.068 1633 336.396 1633H326.326C317.089 1633 308.302 1629.01 302.225 1622.05L295.961 1614.88C289.884 1607.92 281.098 1603.93 271.86 1603.93H186C168.327 1603.93 154 1589.6 154 1571.93L154 595.5" stroke="white"/>
</g>
<g filter="url(#filter14_di_142_6895)">
<path d="M154 1499V1572C154 1589.67 168.327 1604 186 1604H187H220" stroke="#F8F8F8" stroke-linecap="round"/>
<path d="M154 1499V1572C154 1589.67 168.327 1604 186 1604H187H220" stroke="url(#paint8_linear_142_6895)" stroke-opacity="0.6" stroke-linecap="round"/>
</g>
<g filter="url(#filter15_f_142_6895)">
<path d="M154 1499V1572C154 1589.67 168.327 1604 186 1604H187H220" stroke="#F8F8F8" stroke-linecap="round"/>
<path d="M154 1499V1572C154 1589.67 168.327 1604 186 1604H187H220" stroke="url(#paint9_linear_142_6895)" stroke-opacity="0.6" stroke-linecap="round"/>
</g>
<g filter="url(#filter16_i_142_6895)">
<path d="M699 159H724.434C732.574 159 740.408 155.898 746.341 150.325L856.699 46.6748C862.633 41.1021 870.467 38 878.607 38L1198.5 38" stroke="white"/>
</g>
<g filter="url(#filter17_i_142_6895)">
<path d="M788 2089H813.434C821.574 2089 829.408 2092.1 835.341 2097.67L945.699 2201.33C951.633 2206.9 959.467 2210 967.607 2210L1287.5 2210" stroke="white"/>
</g>
<g filter="url(#filter18_i_142_6895)">
<path d="M699 172H731.78C739.911 172 747.737 168.905 753.669 163.343L864.244 59.6571C870.175 54.0953 878.001 51 886.132 51H1198" stroke="white"/>
</g>
<g filter="url(#filter19_i_142_6895)">
<path d="M788 2076H820.78C828.911 2076 836.737 2079.1 842.669 2084.66L953.244 2188.34C959.175 2193.9 967.001 2197 975.132 2197H1287" stroke="white"/>
</g>
<rect width="1280" height="364" fill="url(#paint10_linear_142_6895)"/>
<rect width="1280" height="364" fill="url(#paint11_linear_142_6895)" style="mix-blend-mode:screen"/>
<g filter="url(#filter20_i_142_6895)">
<path d="M-29 2053C-29 2050.03 -29 1980.98 -29 1936.92C-29 1928.49 -25.6728 1920.41 -19.7414 1914.42L-7.93167 1902.49C-1.92149 1896.42 6.26676 1893 14.8097 1893L302 1893" stroke="white"/>
</g>
<g filter="url(#filter21_i_142_6895)">
<path d="M-43 2053C-43 2049.93 -43 1977.87 -43 1932.64C-43 1924.61 -39.9838 1916.89 -34.5495 1910.98L-13.711 1888.33C-7.65161 1881.75 0.888945 1878 9.83844 1878L298 1878" stroke="white"/>
</g>
</g>
<defs>
<filter id="filter0_i_142_6895" x="1010" y="699.5" width="142.5" height="296.6" filterUnits="userSpaceOnUse" color-interpolation-filters="sRGB">
<feFlood flood-opacity="0" result="BackgroundImageFix"/>
<feBlend mode="normal" in="SourceGraphic" in2="BackgroundImageFix" result="shape"/>
<feColorMatrix in="SourceAlpha" type="matrix" values="0 0 0 0 0 0 0 0 0 0 0 0 0 0 0 0 0 0 127 0" result="hardAlpha"/>
<feOffset dy="0.1"/>
<feGaussianBlur stdDeviation="0.25"/>
<feComposite in2="hardAlpha" operator="arithmetic" k2="-1" k3="1"/>
<feColorMatrix type="matrix" values="0 0 0 0 0 0 0 0 0 0 0 0 0 0 0 0 0 0 0.12 0"/>
<feBlend mode="normal" in2="shape" result="effect1_innerShadow_142_6895"/>
</filter>
<filter id="filter1_i_142_6895" x="1010" y="685.5" width="156.5" height="305.6" filterUnits="userSpaceOnUse" color-interpolation-filters="sRGB">
<feFlood flood-opacity="0" result="BackgroundImageFix"/>
<feBlend mode="normal" in="SourceGraphic" in2="BackgroundImageFix" result="shape"/>
<feColorMatrix in="SourceAlpha" type="matrix" values="0 0 0 0 0 0 0 0 0 0 0 0 0 0 0 0 0 0 127 0" result="hardAlpha"/>
<feOffset dy="0.1"/>
<feGaussianBlur stdDeviation="0.25"/>
<feComposite in2="hardAlpha" operator="arithmetic" k2="-1" k3="1"/>
<feColorMatrix type="matrix" values="0 0 0 0 0 0 0 0 0 0 0 0 0 0 0 0 0 0 0.12 0"/>
<feBlend mode="normal" in2="shape" result="effect1_innerShadow_142_6895"/>
</filter>
<filter id="filter2_di_142_6895" x="1133.66" y="690.5" width="36.8409" height="305" filterUnits="userSpaceOnUse" color-interpolation-filters="sRGB">
<feFlood flood-opacity="0" result="BackgroundImageFix"/>
<feColorMatrix in="SourceAlpha" type="matrix" values="0 0 0 0 0 0 0 0 0 0 0 0 0 0 0 0 0 0 127 0" result="hardAlpha"/>
<feOffset/>
<feGaussianBlur stdDeviation="2"/>
<feComposite in2="hardAlpha" operator="out"/>
<feColorMatrix type="matrix" values="0 0 0 0 1 0 0 0 0 1 0 0 0 0 1 0 0 0 0.25 0"/>
<feBlend mode="normal" in2="BackgroundImageFix" result="effect1_dropShadow_142_6895"/>
<feBlend mode="normal" in="SourceGraphic" in2="effect1_dropShadow_142_6895" result="shape"/>
<feColorMatrix in="SourceAlpha" type="matrix" values="0 0 0 0 0 0 0 0 0 0 0 0 0 0 0 0 0 0 127 0" result="hardAlpha"/>
<feOffset/>
<feGaussianBlur stdDeviation="0.2"/>
<feComposite in2="hardAlpha" operator="arithmetic" k2="-1" k3="1"/>
<feColorMatrix type="matrix" values="0 0 0 0 1 0 0 0 0 1 0 0 0 0 1 0 0 0 1 0"/>
<feBlend mode="normal" in2="shape" result="effect2_innerShadow_142_6895"/>
</filter>
<filter id="filter3_f_142_6895" x="1135.66" y="692.5" width="32.8409" height="301" filterUnits="userSpaceOnUse" color-interpolation-filters="sRGB">
<feFlood flood-opacity="0" result="BackgroundImageFix"/>
<feBlend mode="normal" in="SourceGraphic" in2="BackgroundImageFix" result="shape"/>
<feGaussianBlur stdDeviation="1" result="effect1_foregroundBlur_142_6895"/>
</filter>
<filter id="filter4_i_142_6895" x="1010" y="996" width="142.5" height="296.6" filterUnits="userSpaceOnUse" color-interpolation-filters="sRGB">
<feFlood flood-opacity="0" result="BackgroundImageFix"/>
<feBlend mode="normal" in="SourceGraphic" in2="BackgroundImageFix" result="shape"/>
<feColorMatrix in="SourceAlpha" type="matrix" values="0 0 0 0 0 0 0 0 0 0 0 0 0 0 0 0 0 0 127 0" result="hardAlpha"/>
<feOffset dy="0.1"/>
<feGaussianBlur stdDeviation="0.25"/>
<feComposite in2="hardAlpha" operator="arithmetic" k2="-1" k3="1"/>
<feColorMatrix type="matrix" values="0 0 0 0 0 0 0 0 0 0 0 0 0 0 0 0 0 0 0.12 0"/>
<feBlend mode="normal" in2="shape" result="effect1_innerShadow_142_6895"/>
</filter>
<filter id="filter5_i_142_6895" x="1010" y="1001" width="156.5" height="305.6" filterUnits="userSpaceOnUse" color-interpolation-filters="sRGB">
<feFlood flood-opacity="0" result="BackgroundImageFix"/>
<feBlend mode="normal" in="SourceGraphic" in2="BackgroundImageFix" result="shape"/>
<feColorMatrix in="SourceAlpha" type="matrix" values="0 0 0 0 0 0 0 0 0 0 0 0 0 0 0 0 0 0 127 0" result="hardAlpha"/>
<feOffset dy="0.1"/>
<feGaussianBlur stdDeviation="0.25"/>
<feComposite in2="hardAlpha" operator="arithmetic" k2="-1" k3="1"/>
<feColorMatrix type="matrix" values="0 0 0 0 0 0 0 0 0 0 0 0 0 0 0 0 0 0 0.12 0"/>
<feBlend mode="normal" in2="shape" result="effect1_innerShadow_142_6895"/>
</filter>
<filter id="filter6_di_142_6895" x="1133.66" y="996.5" width="36.8409" height="305" filterUnits="userSpaceOnUse" color-interpolation-filters="sRGB">
<feFlood flood-opacity="0" result="BackgroundImageFix"/>
<feColorMatrix in="SourceAlpha" type="matrix" values="0 0 0 0 0 0 0 0 0 0 0 0 0 0 0 0 0 0 127 0" result="hardAlpha"/>
<feOffset/>
<feGaussianBlur stdDeviation="2"/>
<feComposite in2="hardAlpha" operator="out"/>
<feColorMatrix type="matrix" values="0 0 0 0 1 0 0 0 0 1 0 0 0 0 1 0 0 0 0.25 0"/>
<feBlend mode="normal" in2="BackgroundImageFix" result="effect1_dropShadow_142_6895"/>
<feBlend mode="normal" in="SourceGraphic" in2="effect1_dropShadow_142_6895" result="shape"/>
<feColorMatrix in="SourceAlpha" type="matrix" values="0 0 0 0 0 0 0 0 0 0 0 0 0 0 0 0 0 0 127 0" result="hardAlpha"/>
<feOffset/>
<feGaussianBlur stdDeviation="0.2"/>
<feComposite in2="hardAlpha" operator="arithmetic" k2="-1" k3="1"/>
<feColorMatrix type="matrix" values="0 0 0 0 1 0 0 0 0 1 0 0 0 0 1 0 0 0 1 0"/>
<feBlend mode="normal" in2="shape" result="effect2_innerShadow_142_6895"/>
</filter>
<filter id="filter7_f_142_6895" x="1135.66" y="998.5" width="32.8409" height="301" filterUnits="userSpaceOnUse" color-interpolation-filters="sRGB">
<feFlood flood-opacity="0" result="BackgroundImageFix"/>
<feBlend mode="normal" in="SourceGraphic" in2="BackgroundImageFix" result="shape"/>
<feGaussianBlur stdDeviation="1" result="effect1_foregroundBlur_142_6895"/>
</filter>
<filter id="filter8_i_142_6895" x="-82" y="347.5" width="534.381" height="111.924" filterUnits="userSpaceOnUse" color-interpolation-filters="sRGB">
<feFlood flood-opacity="0" result="BackgroundImageFix"/>
<feBlend mode="normal" in="SourceGraphic" in2="BackgroundImageFix" result="shape"/>
<feColorMatrix in="SourceAlpha" type="matrix" values="0 0 0 0 0 0 0 0 0 0 0 0 0 0 0 0 0 0 127 0" result="hardAlpha"/>
<feOffset dy="0.1"/>
<feGaussianBlur stdDeviation="0.25"/>
<feComposite in2="hardAlpha" operator="arithmetic" k2="-1" k3="1"/>
<feColorMatrix type="matrix" values="0 0 0 0 0 0 0 0 0 0 0 0 0 0 0 0 0 0 0.12 0"/>
<feBlend mode="normal" in2="shape" result="effect1_innerShadow_142_6895"/>
</filter>
<filter id="filter9_i_142_6895" x="153.5" y="358.5" width="292.881" height="238.6" filterUnits="userSpaceOnUse" color-interpolation-filters="sRGB">
<feFlood flood-opacity="0" result="BackgroundImageFix"/>
<feBlend mode="normal" in="SourceGraphic" in2="BackgroundImageFix" result="shape"/>
<feColorMatrix in="SourceAlpha" type="matrix" values="0 0 0 0 0 0 0 0 0 0 0 0 0 0 0 0 0 0 127 0" result="hardAlpha"/>
<feOffset dy="0.1"/>
<feGaussianBlur stdDeviation="0.25"/>
<feComposite in2="hardAlpha" operator="arithmetic" k2="-1" k3="1"/>
<feColorMatrix type="matrix" values="0 0 0 0 0 0 0 0 0 0 0 0 0 0 0 0 0 0 0.12 0"/>
<feBlend mode="normal" in2="shape" result="effect1_innerShadow_142_6895"/>
</filter>
<filter id="filter10_di_142_6895" x="149.5" y="383.5" width="75" height="114" filterUnits="userSpaceOnUse" color-interpolation-filters="sRGB">
<feFlood flood-opacity="0" result="BackgroundImageFix"/>
<feColorMatrix in="SourceAlpha" type="matrix" values="0 0 0 0 0 0 0 0 0 0 0 0 0 0 0 0 0 0 127 0" result="hardAlpha"/>
<feOffset/>
<feGaussianBlur stdDeviation="2"/>
<feComposite in2="hardAlpha" operator="out"/>
<feColorMatrix type="matrix" values="0 0 0 0 1 0 0 0 0 1 0 0 0 0 1 0 0 0 0.25 0"/>
<feBlend mode="normal" in2="BackgroundImageFix" result="effect1_dropShadow_142_6895"/>
<feBlend mode="normal" in="SourceGraphic" in2="effect1_dropShadow_142_6895" result="shape"/>
<feColorMatrix in="SourceAlpha" type="matrix" values="0 0 0 0 0 0 0 0 0 0 0 0 0 0 0 0 0 0 127 0" result="hardAlpha"/>
<feOffset/>
<feGaussianBlur stdDeviation="0.2"/>
<feComposite in2="hardAlpha" operator="arithmetic" k2="-1" k3="1"/>
<feColorMatrix type="matrix" values="0 0 0 0 1 0 0 0 0 1 0 0 0 0 1 0 0 0 1 0"/>
<feBlend mode="normal" in2="shape" result="effect2_innerShadow_142_6895"/>
</filter>
<filter id="filter11_f_142_6895" x="151.5" y="385.5" width="71" height="110" filterUnits="userSpaceOnUse" color-interpolation-filters="sRGB">
<feFlood flood-opacity="0" result="BackgroundImageFix"/>
<feBlend mode="normal" in="SourceGraphic" in2="BackgroundImageFix" result="shape"/>
<feGaussianBlur stdDeviation="1" result="effect1_foregroundBlur_142_6895"/>
</filter>
<filter id="filter12_i_142_6895" x="-82" y="1467.18" width="584.886" height="177.417" filterUnits="userSpaceOnUse" color-interpolation-filters="sRGB">
<feFlood flood-opacity="0" result="BackgroundImageFix"/>
<feBlend mode="normal" in="SourceGraphic" in2="BackgroundImageFix" result="shape"/>
<feColorMatrix in="SourceAlpha" type="matrix" values="0 0 0 0 0 0 0 0 0 0 0 0 0 0 0 0 0 0 127 0" result="hardAlpha"/>
<feOffset dy="0.1"/>
<feGaussianBlur stdDeviation="0.25"/>
<feComposite in2="hardAlpha" operator="arithmetic" k2="-1" k3="1"/>
<feColorMatrix type="matrix" values="0 0 0 0 0 0 0 0 0 0 0 0 0 0 0 0 0 0 0.12 0"/>
<feBlend mode="normal" in2="shape" result="effect1_innerShadow_142_6895"/>
</filter>
<filter id="filter13_i_142_6895" x="153.5" y="595.5" width="333.389" height="1038.1" filterUnits="userSpaceOnUse" color-interpolation-filters="sRGB">
<feFlood flood-opacity="0" result="BackgroundImageFix"/>
<feBlend mode="normal" in="SourceGraphic" in2="BackgroundImageFix" result="shape"/>
<feColorMatrix in="SourceAlpha" type="matrix" values="0 0 0 0 0 0 0 0 0 0 0 0 0 0 0 0 0 0 127 0" result="hardAlpha"/>
<feOffset dy="0.1"/>
<feGaussianBlur stdDeviation="0.25"/>
<feComposite in2="hardAlpha" operator="arithmetic" k2="-1" k3="1"/>
<feColorMatrix type="matrix" values="0 0 0 0 0 0 0 0 0 0 0 0 0 0 0 0 0 0 0.12 0"/>
<feBlend mode="normal" in2="shape" result="effect1_innerShadow_142_6895"/>
</filter>
<filter id="filter14_di_142_6895" x="149.5" y="1494.5" width="75" height="114" filterUnits="userSpaceOnUse" color-interpolation-filters="sRGB">
<feFlood flood-opacity="0" result="BackgroundImageFix"/>
<feColorMatrix in="SourceAlpha" type="matrix" values="0 0 0 0 0 0 0 0 0 0 0 0 0 0 0 0 0 0 127 0" result="hardAlpha"/>
<feOffset/>
<feGaussianBlur stdDeviation="2"/>
<feComposite in2="hardAlpha" operator="out"/>
<feColorMatrix type="matrix" values="0 0 0 0 1 0 0 0 0 1 0 0 0 0 1 0 0 0 0.25 0"/>
<feBlend mode="normal" in2="BackgroundImageFix" result="effect1_dropShadow_142_6895"/>
<feBlend mode="normal" in="SourceGraphic" in2="effect1_dropShadow_142_6895" result="shape"/>
<feColorMatrix in="SourceAlpha" type="matrix" values="0 0 0 0 0 0 0 0 0 0 0 0 0 0 0 0 0 0 127 0" result="hardAlpha"/>
<feOffset/>
<feGaussianBlur stdDeviation="0.2"/>
<feComposite in2="hardAlpha" operator="arithmetic" k2="-1" k3="1"/>
<feColorMatrix type="matrix" values="0 0 0 0 1 0 0 0 0 1 0 0 0 0 1 0 0 0 1 0"/>
<feBlend mode="normal" in2="shape" result="effect2_innerShadow_142_6895"/>
</filter>
<filter id="filter15_f_142_6895" x="151.5" y="1496.5" width="71" height="110" filterUnits="userSpaceOnUse" color-interpolation-filters="sRGB">
<feFlood flood-opacity="0" result="BackgroundImageFix"/>
<feBlend mode="normal" in="SourceGraphic" in2="BackgroundImageFix" result="shape"/>
<feGaussianBlur stdDeviation="1" result="effect1_foregroundBlur_142_6895"/>
</filter>
<filter id="filter16_i_142_6895" x="699" y="37.5" width="499.5" height="122.1" filterUnits="userSpaceOnUse" color-interpolation-filters="sRGB">
<feFlood flood-opacity="0" result="BackgroundImageFix"/>
<feBlend mode="normal" in="SourceGraphic" in2="BackgroundImageFix" result="shape"/>
<feColorMatrix in="SourceAlpha" type="matrix" values="0 0 0 0 0 0 0 0 0 0 0 0 0 0 0 0 0 0 127 0" result="hardAlpha"/>
<feOffset dy="0.1"/>
<feGaussianBlur stdDeviation="0.25"/>
<feComposite in2="hardAlpha" operator="arithmetic" k2="-1" k3="1"/>
<feColorMatrix type="matrix" values="0 0 0 0 0 0 0 0 0 0 0 0 0 0 0 0 0 0 0.12 0"/>
<feBlend mode="normal" in2="shape" result="effect1_innerShadow_142_6895"/>
</filter>
<filter id="filter17_i_142_6895" x="788" y="2088.5" width="499.5" height="122.1" filterUnits="userSpaceOnUse" color-interpolation-filters="sRGB">
<feFlood flood-opacity="0" result="BackgroundImageFix"/>
<feBlend mode="normal" in="SourceGraphic" in2="BackgroundImageFix" result="shape"/>
<feColorMatrix in="SourceAlpha" type="matrix" values="0 0 0 0 0 0 0 0 0 0 0 0 0 0 0 0 0 0 127 0" result="hardAlpha"/>
<feOffset dy="0.1"/>
<feGaussianBlur stdDeviation="0.25"/>
<feComposite in2="hardAlpha" operator="arithmetic" k2="-1" k3="1"/>
<feColorMatrix type="matrix" values="0 0 0 0 0 0 0 0 0 0 0 0 0 0 0 0 0 0 0.12 0"/>
<feBlend mode="normal" in2="shape" result="effect1_innerShadow_142_6895"/>
</filter>
<filter id="filter18_i_142_6895" x="699" y="50.5" width="499" height="122.1" filterUnits="userSpaceOnUse" color-interpolation-filters="sRGB">
<feFlood flood-opacity="0" result="BackgroundImageFix"/>
<feBlend mode="normal" in="SourceGraphic" in2="BackgroundImageFix" result="shape"/>
<feColorMatrix in="SourceAlpha" type="matrix" values="0 0 0 0 0 0 0 0 0 0 0 0 0 0 0 0 0 0 127 0" result="hardAlpha"/>
<feOffset dy="0.1"/>
<feGaussianBlur stdDeviation="0.25"/>
<feComposite in2="hardAlpha" operator="arithmetic" k2="-1" k3="1"/>
<feColorMatrix type="matrix" values="0 0 0 0 0 0 0 0 0 0 0 0 0 0 0 0 0 0 0.12 0"/>
<feBlend mode="normal" in2="shape" result="effect1_innerShadow_142_6895"/>
</filter>
<filter id="filter19_i_142_6895" x="788" y="2075.5" width="499" height="122.1" filterUnits="userSpaceOnUse" color-interpolation-filters="sRGB">
<feFlood flood-opacity="0" result="BackgroundImageFix"/>
<feBlend mode="normal" in="SourceGraphic" in2="BackgroundImageFix" result="shape"/>
<feColorMatrix in="SourceAlpha" type="matrix" values="0 0 0 0 0 0 0 0 0 0 0 0 0 0 0 0 0 0 127 0" result="hardAlpha"/>
<feOffset dy="0.1"/>
<feGaussianBlur stdDeviation="0.25"/>
<feComposite in2="hardAlpha" operator="arithmetic" k2="-1" k3="1"/>
<feColorMatrix type="matrix" values="0 0 0 0 0 0 0 0 0 0 0 0 0 0 0 0 0 0 0.12 0"/>
<feBlend mode="normal" in2="shape" result="effect1_innerShadow_142_6895"/>
</filter>
<filter id="filter20_i_142_6895" x="-29.5" y="1892.5" width="331.5" height="160.6" filterUnits="userSpaceOnUse" color-interpolation-filters="sRGB">
<feFlood flood-opacity="0" result="BackgroundImageFix"/>
<feBlend mode="normal" in="SourceGraphic" in2="BackgroundImageFix" result="shape"/>
<feColorMatrix in="SourceAlpha" type="matrix" values="0 0 0 0 0 0 0 0 0 0 0 0 0 0 0 0 0 0 127 0" result="hardAlpha"/>
<feOffset dy="0.1"/>
<feGaussianBlur stdDeviation="0.25"/>
<feComposite in2="hardAlpha" operator="arithmetic" k2="-1" k3="1"/>
<feColorMatrix type="matrix" values="0 0 0 0 0 0 0 0 0 0 0 0 0 0 0 0 0 0 0.12 0"/>
<feBlend mode="normal" in2="shape" result="effect1_innerShadow_142_6895"/>
</filter>
<filter id="filter21_i_142_6895" x="-43.5" y="1877.5" width="341.5" height="175.6" filterUnits="userSpaceOnUse" color-interpolation-filters="sRGB">
<feFlood flood-opacity="0" result="BackgroundImageFix"/>
<feBlend mode="normal" in="SourceGraphic" in2="BackgroundImageFix" result="shape"/>
<feColorMatrix in="SourceAlpha" type="matrix" values="0 0 0 0 0 0 0 0 0 0 0 0 0 0 0 0 0 0 127 0" result="hardAlpha"/>
<feOffset dy="0.1"/>
<feGaussianBlur stdDeviation="0.25"/>
<feComposite in2="hardAlpha" operator="arithmetic" k2="-1" k3="1"/>
<feColorMatrix type="matrix" values="0 0 0 0 0 0 0 0 0 0 0 0 0 0 0 0 0 0 0.12 0"/>
<feBlend mode="normal" in2="shape" result="effect1_innerShadow_142_6895"/>
</filter>
<linearGradient id="paint0_linear_142_6895" x1="640" y1="0" x2="640" y2="2264" gradientUnits="userSpaceOnUse">
<stop stop-color="#FFEAE6"/>
<stop offset="0.333333" stop-color="#FFECEB"/>
<stop offset="0.666667" stop-color="#EBDBFF"/>
<stop offset="1" stop-color="#F8EBFF"/>
</linearGradient>
<radialGradient id="paint1_radial_142_6895" cx="0" cy="0" r="1" gradientUnits="userSpaceOnUse" gradientTransform="translate(640 2264) scale(640 1686.91)">
<stop offset="0.2409" stop-color="white" stop-opacity="0.5"/>
<stop offset="1" stop-color="white" stop-opacity="0.16"/>
</radialGradient>
<linearGradient id="paint2_linear_142_6895" x1="1137.34" y1="842.294" x2="1137.34" y2="693.589" gradientUnits="userSpaceOnUse">
<stop offset="0.220935" stop-color="#FDFDFD" stop-opacity="0"/>
<stop offset="1" stop-color="#7D52F4"/>
</linearGradient>
<linearGradient id="paint3_linear_142_6895" x1="1137.34" y1="842.294" x2="1137.34" y2="693.589" gradientUnits="userSpaceOnUse">
<stop offset="0.220935" stop-color="#FDFDFD" stop-opacity="0"/>
<stop offset="1" stop-color="#7D52F4"/>
</linearGradient>
<linearGradient id="paint4_linear_142_6895" x1="1137.34" y1="1149.71" x2="1137.34" y2="1298.41" gradientUnits="userSpaceOnUse">
<stop offset="0.220935" stop-color="#FDFDFD" stop-opacity="0"/>
<stop offset="1" stop-color="#7D52F4"/>
</linearGradient>
<linearGradient id="paint5_linear_142_6895" x1="1137.34" y1="1149.71" x2="1137.34" y2="1298.41" gradientUnits="userSpaceOnUse">
<stop offset="0.220935" stop-color="#FDFDFD" stop-opacity="0"/>
<stop offset="1" stop-color="#7D52F4"/>
</linearGradient>
<linearGradient id="paint6_linear_142_6895" x1="152.055" y1="470" x2="152.055" y2="380.5" gradientUnits="userSpaceOnUse">
<stop stop-color="#7D52F4"/>
<stop offset="0.779065" stop-color="#FDFDFD" stop-opacity="0"/>
</linearGradient>
<linearGradient id="paint7_linear_142_6895" x1="152.055" y1="470" x2="152.055" y2="380.5" gradientUnits="userSpaceOnUse">
<stop stop-color="#7D52F4"/>
<stop offset="0.779065" stop-color="#FDFDFD" stop-opacity="0"/>
</linearGradient>
<linearGradient id="paint8_linear_142_6895" x1="152.055" y1="1522" x2="152.055" y2="1611.5" gradientUnits="userSpaceOnUse">
<stop stop-color="#7D52F4"/>
<stop offset="0.779065" stop-color="#FDFDFD" stop-opacity="0"/>
</linearGradient>
<linearGradient id="paint9_linear_142_6895" x1="152.055" y1="1522" x2="152.055" y2="1611.5" gradientUnits="userSpaceOnUse">
<stop stop-color="#7D52F4"/>
<stop offset="0.779065" stop-color="#FDFDFD" stop-opacity="0"/>
</linearGradient>
<linearGradient id="paint10_linear_142_6895" x1="640" y1="364" x2="640" y2="0" gradientUnits="userSpaceOnUse">
<stop stop-color="white" stop-opacity="0"/>
<stop offset="1" stop-color="white"/>
</linearGradient>
<linearGradient id="paint11_linear_142_6895" x1="640" y1="364" x2="640" y2="100.202" gradientUnits="userSpaceOnUse">
<stop stop-color="white" stop-opacity="0"/>
<stop offset="1" stop-color="white"/>
</linearGradient>
<clipPath id="clip0_142_6895">
<path d="M0 24C0 10.7451 10.7452 0 24 0H1256C1269.25 0 1280 10.7452 1280 24V2240C1280 2253.25 1269.25 2264 1256 2264H24C10.7452 2264 0 2253.25 0 2240V24Z" fill="white"/>
</clipPath>
</defs>
</svg>
